<svg width="40" height="40" viewBox="0 0 40 40" fill="none" xmlns="http://www.w3.org/2000/svg">
<path d="M10.3429 11.3127L12.736 38.0293H27.2641L29.6572 11.3127H10.3429Z" fill="#EF983B"/>
<path d="M21.975 1.9707L21.6766 5.30164H23.8641L24.1625 1.9707H21.975Z" fill="#8C3F07"/>
<path d="M31.4616 11.3125V9.97809C31.4616 9.33776 31.2072 8.72365 30.7544 8.27087C30.3016 7.81809 29.6875 7.56372 29.0472 7.56372H10.9534C10.3131 7.56372 9.699 7.81809 9.24622 8.27087C8.79343 8.72365 8.53906 9.33776 8.53906 9.97809V11.3125H31.4616Z" fill="#F2E7CB"/>
<path d="M13.4602 5.30164H26.5396V7.56414H13.4602V5.30164Z" fill="#F2E7CB"/>
<path d="M9.62083 16.3845L10.7405 28.8845H29.2593L30.3789 16.3845H9.62083Z" fill="#F2E7CB"/>
<path d="M22.1742 24.8127C23.8287 23.1582 24.1945 20.8416 22.9912 19.6383C21.788 18.4351 19.4713 18.8009 17.8169 20.4554C16.1624 22.1098 15.7966 24.4265 16.9998 25.6297C18.2031 26.833 20.5197 26.4672 22.1742 24.8127Z" fill="#8C3F07"/>
<path d="M29.0471 7.0172H27.0865V5.30157C27.0865 5.15653 27.0289 5.01743 26.9263 4.91487C26.8238 4.81231 26.6847 4.7547 26.5396 4.7547H24.4621L24.7068 2.0197C24.7136 1.94406 24.7046 1.86784 24.6803 1.79589C24.6561 1.72393 24.617 1.65783 24.5658 1.60179C24.5146 1.54575 24.4522 1.501 24.3827 1.4704C24.3132 1.43981 24.2381 1.42403 24.1621 1.42407H21.9746C21.8381 1.42407 21.7065 1.47515 21.6057 1.56727C21.5049 1.65939 21.4422 1.78589 21.4299 1.92188L21.1765 4.7547H13.4602C13.3152 4.7547 13.1761 4.81231 13.0735 4.91487C12.971 5.01743 12.9134 5.15653 12.9134 5.30157V7.0172H10.9527C10.1677 7.01811 9.41497 7.33039 8.85983 7.88553C8.30468 8.44068 7.9924 9.19336 7.99149 9.97845V11.3125C7.99149 11.4576 8.04911 11.5967 8.15167 11.6992C8.25423 11.8018 8.39333 11.8594 8.53837 11.8594H9.84368L10.1999 15.8372H9.62181C9.5459 15.8372 9.47082 15.8531 9.40137 15.8837C9.33191 15.9144 9.26959 15.9591 9.21836 16.0151C9.16713 16.0711 9.12812 16.1372 9.1038 16.2091C9.07949 16.281 9.0704 16.3572 9.07712 16.4328L9.33712 19.3359C9.34311 19.4078 9.36324 19.4778 9.39637 19.5418C9.42949 19.6058 9.47495 19.6627 9.53013 19.7091C9.58532 19.7555 9.64913 19.7905 9.7179 19.8122C9.78667 19.8338 9.85904 19.8417 9.93086 19.8352C10.0027 19.8288 10.0725 19.8082 10.1363 19.7747C10.2002 19.7412 10.2567 19.6954 10.3028 19.6399C10.3489 19.5845 10.3835 19.5204 10.4047 19.4515C10.426 19.3826 10.4334 19.3102 10.4265 19.2384L10.2187 16.9313H29.7812L29.4662 20.4438C29.4533 20.5883 29.4982 20.732 29.5912 20.8433C29.6842 20.9546 29.8176 21.0245 29.9621 21.0375C29.9787 21.0375 29.9934 21.0397 30.0115 21.0397C30.148 21.0395 30.2795 20.9883 30.3802 20.8962C30.4808 20.804 30.5434 20.6775 30.5556 20.5416L30.9237 16.4331C30.9304 16.3575 30.9213 16.2813 30.897 16.2094C30.8727 16.1375 30.8337 16.0714 30.7825 16.0154C30.7312 15.9594 30.6689 15.9147 30.5994 15.884C30.53 15.8534 30.4549 15.8376 30.379 15.8375H29.8009L30.1562 11.8597H31.4606C31.6056 11.8597 31.7447 11.8021 31.8473 11.6995C31.9498 11.597 32.0074 11.4579 32.0074 11.3128V9.97845C32.0065 9.19352 31.6944 8.44098 31.1394 7.88586C30.5845 7.33075 29.8321 7.01836 29.0471 7.0172V7.0172ZM22.4749 2.51782H23.564L23.364 4.7547H22.2746L22.4749 2.51782ZM14.0062 5.84845H25.9928V7.0172H14.0071L14.0062 5.84845ZM28.7028 15.8375H11.2965L10.9402 11.8597H29.059L28.7028 15.8375ZM30.9146 10.7659H9.08524V9.97845C9.08574 9.48331 9.28265 9.00859 9.63277 8.65847C9.98289 8.30836 10.4576 8.11144 10.9527 8.11095H29.0465C29.5416 8.11144 30.0164 8.30836 30.3665 8.65847C30.7166 9.00859 30.9135 9.48331 30.914 9.97845L30.9146 10.7659Z" fill="#422002"/>
<path d="M10.2964 23.9276C10.4409 23.9146 10.5743 23.8447 10.6673 23.7334C10.7603 23.622 10.8053 23.4783 10.7924 23.3338L10.6674 21.9338C10.661 21.8623 10.6405 21.7927 10.6072 21.729C10.574 21.6654 10.5284 21.6089 10.4733 21.5628C10.4182 21.5168 10.3546 21.482 10.286 21.4605C10.2174 21.4391 10.1453 21.4313 10.0738 21.4377C10.0022 21.4441 9.93265 21.4646 9.869 21.4979C9.80535 21.5311 9.74887 21.5767 9.70281 21.6318C9.65674 21.6869 9.62198 21.7505 9.60052 21.8191C9.57905 21.8877 9.5713 21.9598 9.5777 22.0313L9.7027 23.4316C9.71487 23.5676 9.77743 23.6941 9.8781 23.7862C9.97877 23.8784 10.1103 23.9296 10.2468 23.9298C10.2633 23.9298 10.2811 23.9288 10.2964 23.9276V23.9276Z" fill="#422002"/>
<path d="M29.8462 22.3344C29.7019 22.3225 29.5588 22.3679 29.4477 22.4607C29.3366 22.5535 29.2665 22.6862 29.2524 22.8303L28.759 28.3375H11.2409L11.0221 25.8984C11.0092 25.754 10.9393 25.6206 10.828 25.5276C10.7167 25.4346 10.573 25.3897 10.4285 25.4026C10.2841 25.4156 10.1507 25.4854 10.0577 25.5968C9.96473 25.7081 9.91978 25.8518 9.93275 25.9962L10.1959 28.9337C10.2083 29.0697 10.271 29.196 10.3718 29.2881C10.4726 29.3801 10.6041 29.4312 10.7406 29.4312H11.4165L12.1915 38.0781C12.2038 38.2141 12.2664 38.3406 12.3672 38.4327C12.468 38.5249 12.5996 38.5759 12.7362 38.5759H27.2637C27.4002 38.5759 27.5319 38.5249 27.6327 38.4327C27.7334 38.3406 27.7961 38.2141 27.8084 38.0781L28.5834 29.4312H29.2593C29.3959 29.4312 29.5275 29.38 29.6283 29.2878C29.7291 29.1957 29.7918 29.0691 29.804 28.9331L30.3437 22.9281C30.3501 22.8565 30.3423 22.7842 30.3207 22.7156C30.2992 22.6469 30.2643 22.5832 30.2181 22.5281C30.1719 22.4729 30.1153 22.4274 30.0514 22.3942C29.9876 22.3609 29.9179 22.3406 29.8462 22.3344V22.3344ZM26.7637 37.4822H13.2362L12.5149 29.4312H27.4837L26.7637 37.4822Z" fill="#422002"/>
<path d="M16.6053 26.0038C16.6097 26.0081 16.6128 26.0128 16.6172 26.0172C16.9135 26.302 17.2636 26.5249 17.6471 26.6728C18.0306 26.8207 18.4398 26.8906 18.8506 26.8784C20.2603 26.8243 21.5932 26.2221 22.5656 25.2C23.4167 24.3766 23.9881 23.3071 24.1994 22.1419C24.3036 21.637 24.2865 21.1146 24.1494 20.6177C24.0124 20.1207 23.7593 19.6634 23.4109 19.2834C23.4056 19.2772 23.4003 19.2709 23.3947 19.265C23.389 19.2591 23.3872 19.2559 23.3828 19.2516C21.9678 17.8359 19.2997 18.2034 17.4343 20.0684C16.5834 20.892 16.012 21.9617 15.8006 23.1269C15.6964 23.6317 15.7135 24.154 15.8505 24.6509C15.9876 25.1478 16.2407 25.605 16.589 25.985C16.5937 25.9916 16.5997 25.9978 16.6053 26.0038V26.0038ZM23.119 21.9725C22.9439 22.9095 22.48 23.7682 21.7922 24.4281C20.4672 25.7528 18.69 26.1653 17.645 25.4513C17.8672 24.9058 18.2083 24.4168 18.6434 24.0198C19.0784 23.6228 19.5965 23.3278 20.16 23.1563C21.3949 22.788 22.4384 21.9543 23.0703 20.8313C23.1688 21.2033 23.1854 21.5922 23.119 21.9713V21.9725ZM16.8809 23.2975C17.056 22.3605 17.5199 21.5018 18.2078 20.8419C18.9719 20.0237 20.0222 19.5318 21.14 19.4688C21.571 19.459 21.9949 19.5803 22.3556 19.8166C22.1331 20.3618 21.7919 20.8507 21.3567 21.2474C20.9216 21.6442 20.4034 21.939 19.84 22.1103C18.6052 22.4788 17.5618 23.3124 16.9297 24.4353C16.8315 24.064 16.8148 23.6758 16.8809 23.2975Z" fill="#422002"/>
<path d="M15.233 36.0735H19.3158C19.4608 36.0735 19.5999 36.0159 19.7025 35.9133C19.8051 35.8108 19.8627 35.6717 19.8627 35.5266C19.8627 35.3816 19.8051 35.2425 19.7025 35.1399C19.5999 35.0374 19.4608 34.9797 19.3158 34.9797H15.233C15.0879 34.9797 14.9488 35.0374 14.8463 35.1399C14.7437 35.2425 14.6861 35.3816 14.6861 35.5266C14.6861 35.6717 14.7437 35.8108 14.8463 35.9133C14.9488 36.0159 15.0879 36.0735 15.233 36.0735V36.0735Z" fill="#422002"/>
</svg>
