<svg width="30" height="18" viewBox="0 0 30 18" fill="none" xmlns="http://www.w3.org/2000/svg">
<path d="M10.0584 11.8487H7.4725C7.47402 11.8222 7.47659 11.7958 7.47659 11.7688V9.41775H4.62414V11.7688C4.62414 11.7958 4.62672 11.8222 4.62824 11.8487H2.04232C1.04356 11.8487 0.233903 12.6584 0.233903 13.6571V17.7661H11.8668V13.6571C11.8668 12.6584 11.0572 11.8487 10.0584 11.8487Z" fill="#EFECEC"/>
<path d="M27.4294 11.8487H24.8434C24.8449 11.8222 24.8475 11.7958 24.8475 11.7688V9.41775H21.9952V11.7688C21.9952 11.7958 21.9978 11.8222 21.9993 11.8487H19.4134C18.4146 11.8487 17.6049 12.6584 17.6049 13.6571V17.7661H29.2379V13.6571C29.2379 12.6584 28.4282 11.8487 27.4294 11.8487Z" fill="#EFECEC"/>
<path d="M19.3495 11.0513H16.3699C16.3717 11.0207 16.3746 10.9904 16.3746 10.9593V8.25034H13.088V10.9593C13.088 10.9904 13.091 11.0207 13.0927 11.0513H10.1131C8.96234 11.0513 8.0293 11.9843 8.0293 13.1352V17.7662H21.4332V13.1352C21.4332 11.9843 20.5003 11.0513 19.3495 11.0513Z" fill="#EFECEC"/>
<path d="M7.4739 11.8425L7.47659 9.41775H4.62414L4.62683 11.8425C4.62765 12.6282 5.26469 13.2646 6.05037 13.2646C6.83605 13.2645 7.47308 12.6282 7.4739 11.8425Z" fill="#EFECEC"/>
<path d="M6.05037 10.8698C4.34744 10.8698 2.96694 9.47143 2.96694 7.7464V5.58396C2.96694 3.85893 4.34744 2.46054 6.05037 2.46054C7.7533 2.46054 9.13379 3.85893 9.13379 5.58396V7.7464C9.13379 9.47143 7.7533 10.8698 6.05037 10.8698Z" fill="#EFECEC"/>
<path d="M24.8449 11.8425L24.8475 9.41775H21.9952L21.998 11.8425C21.9988 12.6282 22.6358 13.2646 23.4215 13.2646C24.207 13.2645 24.8441 12.6282 24.8449 11.8425Z" fill="#EFECEC"/>
<path d="M23.4214 10.8698C21.7185 10.8698 20.338 9.47143 20.338 7.7464V5.58396C20.338 3.85893 21.7185 2.46054 23.4214 2.46054C25.1243 2.46054 26.5048 3.85893 26.5048 5.58396V7.7464C26.5048 9.47143 25.1243 10.8698 23.4214 10.8698Z" fill="#EFECEC"/>
<path d="M16.3715 11.0442L16.3746 8.25034H13.088L13.091 11.0442C13.0919 11.9494 13.826 12.6828 14.7312 12.6828C15.6365 12.6828 16.3706 11.9494 16.3715 11.0442Z" fill="#EFECEC"/>
<path d="M14.7312 9.92345C12.769 9.92345 11.1783 8.31209 11.1783 6.3245V3.83285C11.1783 1.84526 12.769 0.233903 14.7312 0.233903C16.6934 0.233903 18.2841 1.84526 18.2841 3.83285V6.3245C18.2841 8.31209 16.6934 9.92345 14.7312 9.92345Z" fill="#EFECEC"/>
<path d="M11.8668 18H0.233903C0.104789 18 0 17.8952 0 17.7661V13.6571C0 12.531 0.916198 11.6148 2.04232 11.6148H4.39024V9.41775C4.39024 9.28864 4.49503 9.18385 4.62414 9.18385H7.47659C7.6057 9.18385 7.71049 9.28864 7.71049 9.41775V11.6148H10.0584C11.1845 11.6148 12.1007 12.531 12.1007 13.6571V17.7661C12.1007 17.8953 11.9959 18 11.8668 18ZM0.467806 17.5322H11.6329V13.6571C11.6329 12.7889 10.9267 12.0826 10.0584 12.0826H7.4725C7.40794 12.0826 7.34642 12.0559 7.30222 12.009C7.25801 11.9621 7.2352 11.899 7.23906 11.8347L7.24058 11.8113C7.24163 11.7971 7.2428 11.7831 7.2428 11.7688V9.65165H4.85816V11.7688C4.85816 11.7823 4.85933 11.7954 4.86027 11.8086L4.86202 11.8356C4.86553 11.8998 4.84261 11.9626 4.7984 12.0094C4.75419 12.0562 4.69279 12.0826 4.62847 12.0826H2.04232C1.17408 12.0826 0.467806 12.789 0.467806 13.6571V17.5322Z" fill="#EFECEC"/>
<path d="M6.05025 11.1037C4.22113 11.1037 2.73304 9.59762 2.73304 7.74628V5.58385C2.73304 3.73251 4.22125 2.22641 6.05025 2.22641C7.87949 2.22641 9.36758 3.73251 9.36758 5.58385V7.74628C9.3677 9.59762 7.87949 11.1037 6.05025 11.1037ZM6.05025 2.69433C4.47901 2.69433 3.20084 3.99062 3.20084 5.58396V7.7464C3.20084 9.33974 4.47912 10.636 6.05025 10.636C7.62138 10.636 8.89977 9.33974 8.89977 7.7464V5.58396C8.89989 3.99062 7.62149 2.69433 6.05025 2.69433Z" fill="#EFECEC"/>
<path d="M29.2379 18H17.6049C17.4758 18 17.371 17.8952 17.371 17.7661V13.6571C17.371 12.531 18.2872 11.6148 19.4134 11.6148H21.7613V9.41775C21.7613 9.28864 21.8661 9.18385 21.9952 9.18385H24.8475C24.9766 9.18385 25.0814 9.28864 25.0814 9.41775V11.6148H27.4293C28.5556 11.6148 29.4718 12.531 29.4718 13.6571V17.7661C29.4718 17.8953 29.367 18 29.2379 18ZM17.8388 17.5322H29.004V13.6571C29.004 12.7889 28.2976 12.0826 27.4293 12.0826H24.8435C24.7792 12.0826 24.7178 12.0561 24.6736 12.0094C24.6294 11.9627 24.6065 11.8998 24.61 11.8356L24.6116 11.81C24.6126 11.7963 24.6137 11.7827 24.6137 11.7688V9.65165H22.2292V11.7688C22.2292 11.7832 22.2304 11.7972 22.2314 11.8113L22.2329 11.8347C22.2368 11.899 22.214 11.9621 22.1698 12.009C22.1256 12.0559 22.0641 12.0826 21.9995 12.0826H19.4136C18.5453 12.0826 17.8391 12.789 17.8391 13.6571L17.8388 17.5322Z" fill="#EFECEC"/>
<path d="M23.4214 13.4984C22.5084 13.4984 21.7649 12.7557 21.764 11.8426L21.7613 9.41775C21.7612 9.35565 21.7859 9.29636 21.8298 9.25238C21.8737 9.20841 21.9331 9.18385 21.9952 9.18385H24.8475C24.9096 9.18385 24.9693 9.20852 25.0131 9.25238C25.057 9.29624 25.0815 9.35565 25.0814 9.41775L25.079 11.8426C25.078 12.7557 24.3344 13.4984 23.4214 13.4984ZM22.2292 9.65165L22.2318 11.8422C22.2325 12.4974 22.766 13.0306 23.4214 13.0306C24.0768 13.0306 24.6104 12.4974 24.611 11.8422L24.6137 9.65165H22.2292Z" fill="#EFECEC"/>
<path d="M23.4214 11.1037C21.5923 11.1037 20.1042 9.59762 20.1042 7.74628V5.58385C20.1042 3.73251 21.5924 2.22641 23.4214 2.22641C25.2506 2.22641 26.7387 3.73251 26.7387 5.58385V7.74628C26.7387 9.59762 25.2505 11.1037 23.4214 11.1037ZM23.4214 2.69433C21.8502 2.69433 20.572 3.99062 20.572 5.58396V7.7464C20.572 9.33974 21.8503 10.636 23.4214 10.636C24.9925 10.636 26.2709 9.33974 26.2709 7.7464V5.58396C26.2709 3.99062 24.9925 2.69433 23.4214 2.69433Z" fill="#EFECEC"/>
<path d="M21.4332 18H8.02919C7.90007 18 7.79528 17.8952 7.79528 17.7661V13.1351C7.79528 11.8571 8.8351 10.8174 10.113 10.8174H12.854V8.25034C12.854 8.12123 12.9588 8.01644 13.0879 8.01644H16.3746C16.5037 8.01644 16.6085 8.12123 16.6085 8.25034V10.8174H19.3495C20.6275 10.8174 21.6671 11.8571 21.6671 13.1351V17.7661C21.6671 17.8953 21.5623 18 21.4332 18ZM8.26309 17.5322H21.1992V13.1351C21.1992 12.115 20.3693 11.2852 19.3494 11.2852H16.3697C16.3053 11.2852 16.2436 11.2586 16.1994 11.2118C16.1552 11.1649 16.1324 11.1019 16.1363 11.0374L16.1381 11.0095C16.1393 10.9929 16.1406 10.9762 16.1406 10.9593V8.48424H13.3217V10.9593C13.3217 10.9758 13.323 10.9919 13.3242 11.0081L13.3261 11.0381C13.3297 11.1023 13.3067 11.1651 13.2625 11.2119C13.2183 11.2587 13.1569 11.2851 13.0926 11.2851H10.1131C9.09298 11.2851 8.2632 12.115 8.2632 13.1349L8.26309 17.5322Z" fill="#EFECEC"/>
<path d="M14.7312 12.9167C13.6989 12.9167 12.8581 12.0768 12.8572 11.0444L12.854 8.25034C12.8539 8.18824 12.8787 8.12895 12.9226 8.08509C12.9664 8.04123 13.0258 8.01644 13.0879 8.01644H16.3746C16.4367 8.01644 16.4964 8.04123 16.5402 8.08509C16.5841 8.12895 16.6086 8.18824 16.6085 8.25034L16.6056 11.0445C16.6044 12.0768 15.7635 12.9167 14.7312 12.9167ZM13.3217 8.48424L13.3249 11.0438C13.3257 11.8186 13.9564 12.4488 14.7311 12.4488C15.5058 12.4488 16.1367 11.8185 16.1374 11.0438L16.1406 8.48424H13.3217Z" fill="#EFECEC"/>
<path d="M14.7312 10.1574C12.6432 10.1574 10.9446 8.43793 10.9446 6.3245V3.83285C10.9446 1.71942 12.6432 0 14.7312 0C16.8193 0 18.518 1.71942 18.518 3.83285V6.3245C18.518 8.43793 16.8191 10.1574 14.7312 10.1574ZM14.7312 0.467806C12.9013 0.467806 11.4124 1.97742 11.4124 3.83285V6.3245C11.4124 8.17994 12.9011 9.68954 14.7312 9.68954C16.5613 9.68954 18.0502 8.17994 18.0502 6.3245V3.83285C18.0502 1.97742 16.5613 0.467806 14.7312 0.467806Z" fill="#EFECEC"/>
</svg>
