<svg width="30" height="30" viewBox="0 0 30 30" fill="none" xmlns="http://www.w3.org/2000/svg">
<path d="M16.5 23.5H14V24.5H16.5V23.5Z" fill="#EFECEC"/>
<path d="M21.5 21.5H8.5V3H11.7929L12.1464 3.35356C12.1929 3.39999 12.248 3.43682 12.3087 3.46195C12.3693 3.48707 12.4343 3.5 12.5 3.5H17.5C17.5657 3.5 17.6307 3.48707 17.6913 3.46195C17.752 3.43682 17.8071 3.39999 17.8536 3.35356L18.2071 3H21.5V5.5H22.5V1.75C22.4995 1.28603 22.3149 0.841222 21.9869 0.513148C21.6588 0.185074 21.214 0.00052934 20.75 0H12V1H20.75C20.9488 1.00021 21.1395 1.0793 21.2801 1.21991C21.4207 1.36051 21.4998 1.55115 21.5 1.75V2H18C17.9343 2 17.8693 2.01293 17.8087 2.03805C17.748 2.06318 17.6929 2.10001 17.6464 2.14644L17.2929 2.5H12.7071L12.3536 2.14644C12.3071 2.10001 12.252 2.06318 12.1913 2.03805C12.1307 2.01293 12.0657 2 12 2H8.5V1.75C8.50021 1.55115 8.5793 1.36051 8.71991 1.21991C8.86051 1.0793 9.05115 1.00021 9.25 1H11V0H9.25C8.78603 0.00052934 8.34122 0.185074 8.01315 0.513148C7.68507 0.841222 7.50053 1.28603 7.5 1.75V12H7.33331C6.98768 11.9994 6.64965 12.1014 6.36207 12.2931C6.07449 12.4849 5.85031 12.7577 5.71794 13.0769L3.53844 18.3077C3.51306 18.3686 3.5 18.434 3.5 18.5V23.8284L0.105312 28.193C0.0370475 28.2808 -9.85835e-06 28.3888 1.96723e-09 28.5V29.5C1.96723e-09 29.6326 0.0526784 29.7598 0.146447 29.8536C0.240215 29.9473 0.367392 30 0.5 30H11C11.0823 30 11.1633 29.9797 11.2359 29.9408C11.3085 29.902 11.3703 29.8459 11.416 29.7774L12.3011 28.45L16.0932 27.6916C16.4004 27.6294 16.6853 27.486 16.9184 27.2765C17.1515 27.067 17.3243 26.7989 17.4188 26.5H20.75C21.214 26.4995 21.6588 26.3149 21.9869 25.9869C22.3149 25.6588 22.4995 25.214 22.5 24.75V20.5H21.5V21.5ZM15.8971 26.7107L11.9019 27.5097C11.7719 27.5357 11.6576 27.6123 11.584 27.7226L10.7324 29H1V28.6716L4.39469 24.307C4.46295 24.2192 4.50001 24.1112 4.5 24V18.6L6.641 13.4616C6.69773 13.3247 6.79381 13.2078 6.91706 13.1256C7.04031 13.0435 7.18518 12.9997 7.33331 13H7.5V24.75C7.50053 25.214 7.68507 25.6588 8.01315 25.9869C8.34122 26.3149 8.78603 26.4995 9.25 26.5H16.285C16.1798 26.6076 16.0447 26.6811 15.8971 26.7107ZM20.75 25.5H9.25C9.05115 25.4998 8.86051 25.4207 8.71991 25.2801C8.5793 25.1395 8.50021 24.9488 8.5 24.75V22.5H21.5V24.75C21.4998 24.9488 21.4207 25.1395 21.2801 25.2801C21.1395 25.4207 20.9488 25.4998 20.75 25.5Z" fill="#EFECEC"/>
<path d="M28.875 6.5H13.125C12.8267 6.50035 12.5408 6.61898 12.3299 6.82989C12.119 7.04079 12.0003 7.32674 12 7.625V12.159L9.58612 15.7194C9.53516 15.7946 9.50563 15.8823 9.50072 15.973C9.49581 16.0637 9.5157 16.154 9.55825 16.2342C9.60079 16.3145 9.6644 16.3816 9.74223 16.4284C9.82006 16.4753 9.90917 16.5 10 16.5H12V18.375C12.0003 18.6733 12.119 18.9592 12.3299 19.1701C12.5408 19.381 12.8267 19.4997 13.125 19.5H25V18.5H13.125C13.0918 18.5 13.0601 18.4868 13.0366 18.4634C13.0132 18.4399 13 18.4082 13 18.375V16C13 15.8674 12.9473 15.7402 12.8536 15.6464C12.7598 15.5527 12.6326 15.5 12.5 15.5H10.9431L12.9139 12.5931C12.97 12.5103 13 12.4125 13 12.3125V7.625C13 7.59185 13.0132 7.56005 13.0366 7.53661C13.0601 7.51317 13.0918 7.5 13.125 7.5H28.875C28.9081 7.5 28.9399 7.51317 28.9634 7.53661C28.9868 7.56005 29 7.59185 29 7.625V18.375C29 18.4082 28.9868 18.4399 28.9634 18.4634C28.9399 18.4868 28.9081 18.5 28.875 18.5H26V19.5H28.875C29.1733 19.4997 29.4592 19.381 29.6701 19.1701C29.881 18.9592 29.9997 18.6733 30 18.375V7.625C29.9997 7.32674 29.881 7.04079 29.6701 6.82989C29.4592 6.61898 29.1733 6.50035 28.875 6.5Z" fill="#EFECEC"/>
<path d="M20.4679 9.54175C20.1988 9.54193 19.9325 9.59718 19.6855 9.70409C19.4385 9.81101 19.2159 9.96733 19.0316 10.1634L18.4853 10.6786L17.9412 10.1637C17.756 9.96648 17.5323 9.80944 17.2838 9.70243C17.0353 9.59543 16.7675 9.54073 16.4969 9.54177C16.2264 9.5428 15.959 9.59953 15.7113 9.70843C15.4636 9.81734 15.2411 9.97607 15.0574 10.1748C14.2817 10.9975 14.2817 12.3362 15.061 13.1628L18.126 16.3468C18.1726 16.3952 18.2286 16.4338 18.2905 16.4601C18.3524 16.4864 18.419 16.5 18.4862 16.5C18.5535 16.5 18.6201 16.4864 18.6819 16.4601C18.7438 16.4338 18.7998 16.3952 18.8464 16.3468L21.9152 13.1592C22.2893 12.7524 22.4969 12.2198 22.4969 11.6671C22.4969 11.1144 22.2893 10.5819 21.9152 10.175C21.7305 9.97554 21.5067 9.81634 21.2576 9.70737C21.0086 9.59841 20.7398 9.54203 20.4679 9.54175ZM21.1911 12.4692L18.4862 15.2791L15.7851 12.4728C15.5829 12.253 15.4706 11.9652 15.4706 11.6666C15.4706 11.3679 15.5829 11.0801 15.7851 10.8603C15.8761 10.7599 15.9871 10.6796 16.111 10.6246C16.2349 10.5697 16.369 10.5413 16.5045 10.5413C16.6401 10.5413 16.7741 10.5697 16.898 10.6246C17.022 10.6796 17.133 10.7599 17.224 10.8603C17.2306 10.8672 17.2373 10.8739 17.2442 10.8805L18.1411 11.7292C18.2338 11.817 18.3566 11.8659 18.4843 11.866C18.612 11.8661 18.7349 11.8174 18.8278 11.7297L19.7278 10.8811C19.7349 10.8744 19.7419 10.8675 19.7486 10.8603C19.8396 10.7599 19.9507 10.6796 20.0746 10.6246C20.1985 10.5697 20.3325 10.5413 20.4681 10.5413C20.6036 10.5413 20.7377 10.5697 20.8616 10.6246C20.9855 10.6796 21.0966 10.7599 21.1876 10.8603C21.3894 11.0794 21.5018 11.3662 21.5024 11.6641C21.5031 11.962 21.392 12.2493 21.1911 12.4692Z" fill="#EFECEC"/>
<path d="M26 16V10.5C26 10.3927 25.9655 10.2882 25.9015 10.2021C25.8376 10.1159 25.7476 10.0526 25.6449 10.0215C25.5422 9.99037 25.4322 9.99314 25.3312 10.0294C25.2302 10.0656 25.1435 10.1333 25.084 10.2226C24.2693 11.4446 23.5187 11.4986 23.4875 11.5C23.4959 11.4996 23.5 11.5 23.5 11.5V12.5C23.5937 12.5 24.2318 12.4747 25 11.8274V16H26Z" fill="#EFECEC"/>
</svg>
