<svg width="111" height="109" viewBox="0 0 111 109" fill="none" xmlns="http://www.w3.org/2000/svg">
<path d="M103.555 27.8241C98.5921 19.2645 91.8601 12.4878 83.3575 7.4926C74.8535 2.49711 65.5697 0 55.4995 0C45.4306 0 36.1437 2.49787 27.6415 7.4926C19.1381 12.4876 12.4064 19.2645 7.44343 27.8241C2.48123 36.3835 0 45.7304 0 55.8645C0 68.038 3.52834 78.9846 10.5868 88.7073C17.6445 98.4308 26.762 105.159 37.9385 108.893C39.2395 109.136 40.2026 108.965 40.8288 108.384C41.4552 107.803 41.7681 107.075 41.7681 106.203C41.7681 106.057 41.7557 104.749 41.7316 102.275C41.7068 99.8013 41.6952 97.6433 41.6952 95.802L40.033 96.0914C38.9732 96.2868 37.6363 96.3696 36.0222 96.3462C34.4089 96.3235 32.7341 96.1533 31 95.8369C29.2652 95.5232 27.6517 94.7958 26.1581 93.6562C24.6652 92.5166 23.6055 91.0248 22.979 89.1833L22.2564 87.5094C21.7747 86.395 21.0164 85.157 19.9804 83.8C18.9445 82.4418 17.8968 81.521 16.8371 81.0361L16.3311 80.6715C15.994 80.4293 15.6811 80.137 15.3918 79.7979C15.1028 79.4588 14.8864 79.1194 14.7418 78.7795C14.5971 78.4394 14.717 78.1604 15.103 77.9416C15.489 77.7227 16.1866 77.6165 17.1988 77.6165L18.6435 77.8338C19.6071 78.0282 20.799 78.6088 22.2207 79.5793C23.6417 80.549 24.8098 81.8097 25.7253 83.3608C26.8339 85.3496 28.1695 86.865 29.736 87.9078C31.3013 88.9507 32.8794 89.4712 34.4689 89.4712C36.0584 89.4712 37.4313 89.3499 38.588 89.1086C39.7435 88.8661 40.8275 88.5015 41.8397 88.0169C42.2733 84.7664 43.4538 82.2693 45.3802 80.5238C42.6345 80.2333 40.1659 79.7959 37.9732 79.2142C35.7818 78.6318 33.5172 77.6865 31.181 76.3759C28.8436 75.0671 26.9045 73.4419 25.3633 71.503C23.8219 69.5631 22.5568 67.0163 21.57 63.8649C20.5826 60.7123 20.0888 57.0755 20.0888 52.9537C20.0888 47.0848 21.9921 42.0906 25.7982 37.9682C24.0152 33.5559 24.1836 28.6096 26.3036 23.1298C27.7008 22.6928 29.7727 23.0207 32.5185 24.1115C35.2647 25.2027 37.2754 26.1375 38.5526 26.9125C39.8298 27.6873 40.8531 28.3439 41.6241 28.8764C46.1054 27.616 50.7299 26.9856 55.499 26.9856C60.2681 26.9856 64.8936 27.616 69.3752 28.8764L72.1212 27.1314C73.999 25.967 76.2165 24.9 78.7683 23.93C81.3217 22.9606 83.2742 22.6936 84.6238 23.1305C86.7909 28.6106 86.984 33.5567 85.2006 37.969C89.0063 42.0913 90.9105 47.0868 90.9105 52.9544C90.9105 57.0763 90.4149 60.7245 89.429 63.9014C88.4419 67.0787 87.166 69.623 85.6008 71.5394C84.0338 73.4556 82.0823 75.0682 79.7461 76.3767C77.4094 77.6863 75.1441 78.6315 72.9526 79.2139C70.7602 79.7964 68.2916 80.2341 65.5459 80.525C68.0502 82.7065 69.3026 86.1498 69.3026 90.8536V106.201C69.3026 107.073 69.6038 107.801 70.2067 108.382C70.8088 108.963 71.7597 109.134 73.0607 108.891C84.2388 105.157 93.3563 98.4288 100.414 88.7053C107.47 78.9826 111 68.0359 111 55.8625C110.997 45.7296 108.515 36.3835 103.555 27.8241Z" fill="#EFECEC"/>
</svg>
