<svg width="40" height="40" viewBox="0 0 40 40" fill="none" xmlns="http://www.w3.org/2000/svg">
<g clip-path="url(#clip0)">
<path d="M4.50539 20.2588H35.4946V25.0011H4.50539V20.2588Z" fill="#F69583"/>
<path d="M17.0261 37.3798H8.76561C8.32108 37.3798 7.96077 37.0195 7.96077 36.5749V26.5343H17.8309V36.5749C17.8309 37.0195 17.4706 37.3798 17.0261 37.3798V37.3798Z" fill="#FFCEC0"/>
<path d="M31.2344 37.3798H22.9739C22.5294 37.3798 22.1691 37.0195 22.1691 36.5749V26.5343H32.0392V36.5749C32.0392 37.0195 31.6789 37.3798 31.2344 37.3798V37.3798Z" fill="#FFCEC0"/>
<path d="M6.09609 21.3294L3.80538 15.0356C3.43484 14.0176 2.30921 13.4927 1.29124 13.8632C0.273198 14.2338 -0.251724 15.3594 0.118823 16.3775L2.40953 22.6712L6.09609 21.3294Z" fill="#FDB0A0"/>
<path d="M3.80547 15.0358L6.09609 21.3293L3.64656 22.2209L1.35593 15.9274C1.15656 15.3797 0.738356 14.9743 0.236481 14.7751C0.456168 14.3668 0.821403 14.0344 1.29125 13.8634C2.30953 13.4928 3.43484 14.0175 3.80547 15.0358Z" fill="#F69583"/>
<path d="M37.5904 22.6711L39.8811 16.3774C40.2516 15.3593 39.7267 14.2337 38.7087 13.8632C37.6907 13.4927 36.5651 14.0176 36.1946 15.0356L33.9039 21.3293L37.5904 22.6711Z" fill="#FDB0A0"/>
<path d="M39.8812 16.3776L37.5905 22.6711L35.7472 22.0002L38.0378 15.7067C38.2862 15.024 38.1322 14.2933 37.697 13.7752C38.0255 13.7166 38.373 13.7412 38.7087 13.8634C39.7263 14.2338 40.2518 15.3594 39.8812 16.3776V16.3776Z" fill="#F69583"/>
<path d="M34.9094 20.608C39.017 16.49 39.0141 9.82212 34.9001 5.70806C30.9574 1.7654 24.6691 1.59852 20.5276 5.20688C20.2264 5.46931 19.7734 5.46931 19.4723 5.20688C15.3308 1.59845 9.04242 1.76532 5.09976 5.70806C0.985775 9.82204 0.982884 16.49 5.09046 20.608L19.488 35.0059C19.7707 35.2886 20.2291 35.2886 20.5117 35.0059L34.9094 20.608Z" fill="#FB4A59"/>
<path d="M34.9096 20.6078L20.5121 35.006C20.2295 35.2887 19.7705 35.2887 19.4879 35.006L17.6882 33.2056L31.4408 19.4531C35.5483 15.3351 35.545 8.66697 31.4311 4.55307C30.6927 3.81463 29.8714 3.2083 28.9977 2.73486C31.1581 3.05455 33.238 4.0458 34.9 5.70775C39.0139 9.82252 39.0171 16.4898 34.9096 20.6078V20.6078Z" fill="#F82F40"/>
<path d="M6.55031 24.0778C6.28601 24.0396 6.07492 23.8383 6.02406 23.5761L5.0168 18.3845C4.78101 17.1656 3.51508 16.44 2.3418 16.8578C1.38813 17.1975 0.84586 18.2067 1.0393 19.2003L2.15664 24.9405L2.66938 27.5743C3.43469 31.506 7.24234 34.0728 11.174 33.3075L12.7732 32.9961C13.1135 32.9299 13.3357 32.6003 13.2695 32.26L12.8439 30.074C12.234 26.9407 9.70945 24.5355 6.55031 24.0778V24.0778Z" fill="#FFDFD0"/>
<path d="M12.7729 32.996L11.4023 33.2628L10.9497 30.9354C10.3395 27.8022 7.81493 25.3968 4.65571 24.9396C4.39149 24.9012 4.18048 24.6999 4.12962 24.4378L3.12196 19.2459C2.94837 18.3452 2.21056 17.7137 1.36423 17.6143C1.59665 17.2749 1.93079 17.0042 2.34134 16.8581C3.51493 16.4399 4.7811 17.1655 5.01657 18.3842L6.02423 23.5761C6.07509 23.8382 6.2861 24.0396 6.55032 24.078C9.70954 24.5352 12.2341 26.9406 12.8435 30.0738L13.2693 32.2594C13.3357 32.5999 13.1134 32.9297 12.7729 32.996V32.996Z" fill="#FFCEC0"/>
<path d="M33.4497 24.0778C33.714 24.0396 33.9251 23.8383 33.9759 23.5761L34.9832 18.3845C35.219 17.1656 36.4849 16.44 37.6582 16.8578C38.6119 17.1975 39.1541 18.2067 38.9607 19.2003L37.8433 24.9405L37.3306 27.5743C36.5653 31.506 32.7576 34.0728 28.826 33.3075L27.2268 32.9961C26.8865 32.9299 26.6643 32.6003 26.7305 32.26L27.1561 30.074C27.766 26.9407 30.2905 24.5355 33.4497 24.0778V24.0778Z" fill="#FFDFD0"/>
<path d="M38.9606 19.1999L37.8436 24.9403L37.3305 27.5743C36.5652 31.5057 32.7576 34.0724 28.8262 33.3071L28.0677 33.1595C31.5381 33.2413 34.6644 30.8153 35.3503 27.2929L35.8626 24.6589L36.9804 18.9193C37.1326 18.1387 36.8298 17.3481 36.2311 16.8817C36.6692 16.7082 37.1723 16.6845 37.6585 16.8581C38.6119 17.1975 39.1541 18.2067 38.9606 19.1999Z" fill="#FFCEC0"/>
</g>
<defs>
<clipPath id="clip0">
<rect width="40" height="40" fill="white"/>
</clipPath>
</defs>
</svg>
