<svg width="22" height="30" viewBox="0 0 22 30" fill="none" xmlns="http://www.w3.org/2000/svg">
<path fill-rule="evenodd" clip-rule="evenodd" d="M21.999 5.73789C21.9987 5.73162 21.9985 5.72535 21.998 5.71909C21.9959 5.69425 21.9931 5.66985 21.9875 5.64568C21.9875 5.64568 21.9875 5.64568 21.9875 5.64546C21.9819 5.62129 21.974 5.59734 21.9651 5.57407C21.9628 5.56825 21.9605 5.56243 21.9579 5.55661C21.9485 5.53446 21.9378 5.51275 21.9256 5.49171C21.9248 5.49059 21.9243 5.48947 21.9235 5.48835C21.9103 5.46642 21.895 5.44561 21.8784 5.42524C21.8743 5.4201 21.87 5.41517 21.8656 5.41003C21.848 5.38988 21.8297 5.37041 21.809 5.35229L15.9025 0.167846C15.8818 0.149719 15.8597 0.133606 15.8367 0.118164C15.8308 0.114359 15.825 0.110331 15.8191 0.10675C15.7959 0.0922036 15.7725 0.0787759 15.7477 0.0673623C15.7459 0.0664672 15.7442 0.0660196 15.7426 0.0651244C15.7192 0.0543822 15.6947 0.0452066 15.67 0.0369262C15.6631 0.0346883 15.6564 0.0326741 15.6493 0.0306599C15.6228 0.0228271 15.596 0.0158895 15.5682 0.010966C15.568 0.010966 15.5677 0.010966 15.5677 0.010966C15.5404 0.00626627 15.5126 0.00358072 15.4846 0.00179036C15.4775 0.00156657 15.4703 0.00111897 15.4632 0.000895181C15.4558 0.000671389 15.4484 0 15.441 0H0.652713C0.292191 0 0 0.256469 0 0.572916V25.0951C0 25.4115 0.292191 25.668 0.652713 25.668H10.4796V28.7604C10.4796 28.9687 10.6086 29.1607 10.8164 29.2617C11.0245 29.3626 11.2782 29.3566 11.4793 29.2458L13.9653 27.8768L16.4512 29.2458C16.557 29.304 16.6776 29.3333 16.7982 29.3333C16.9068 29.3333 17.0157 29.3096 17.1141 29.2619C17.3219 29.161 17.4509 28.9689 17.4509 28.7604V25.668H21.3473C21.7078 25.668 22 25.4115 22 25.0951V5.75736C22 5.75087 21.9992 5.74438 21.999 5.73789ZM16.0937 1.95619L19.7716 5.18444H16.0937V1.95619ZM10.1576 17.6957C10.1117 17.5863 10.037 17.4075 10.0352 17.3343C10.0862 17.2788 10.2631 17.1805 10.3715 17.1206C10.604 16.9917 10.8677 16.8453 11.0589 16.6166C11.2519 16.3854 11.3304 16.1184 11.3998 15.883C11.4301 15.78 11.4791 15.6137 11.5209 15.5509C11.5438 15.5466 11.592 15.5406 11.6825 15.5406C11.7552 15.5406 11.8365 15.5441 11.9227 15.548C12.0216 15.5522 12.1236 15.5567 12.2302 15.5567C12.4653 15.5567 12.655 15.5334 12.8271 15.483C13.1277 15.3953 13.3681 15.2255 13.5803 15.0755C13.6975 14.9927 13.8939 14.854 13.9622 14.8455C14.0369 14.854 14.233 14.9927 14.3503 15.0755C14.5624 15.2255 14.8031 15.3953 15.1037 15.483C15.2758 15.5334 15.4652 15.5567 15.7006 15.5567C15.8069 15.5567 15.9091 15.5522 16.0078 15.548C16.094 15.5441 16.1753 15.5406 16.2482 15.5406C16.3387 15.5406 16.3867 15.5464 16.4099 15.5509C16.4517 15.6137 16.5006 15.78 16.5307 15.883C16.6001 16.1184 16.6789 16.3854 16.8719 16.6166C17.0628 16.8453 17.3265 16.9914 17.5593 17.1206C17.6674 17.1808 17.8443 17.2788 17.8953 17.3343C17.8935 17.4075 17.8188 17.5863 17.7732 17.6957C17.676 17.9278 17.5661 18.191 17.5661 18.4826C17.5661 18.7742 17.676 19.0374 17.7729 19.2697C17.8188 19.3791 17.8935 19.5579 17.8953 19.6311C17.8443 19.6866 17.6674 19.7846 17.5593 19.8448C17.3265 19.9737 17.0628 20.1201 16.8719 20.3488C16.6789 20.58 16.6001 20.847 16.5307 21.0824C16.5006 21.1851 16.4514 21.3516 16.4099 21.4145C16.3867 21.4188 16.3387 21.4248 16.2482 21.4248C16.1753 21.4248 16.094 21.4212 16.0078 21.4174C15.9091 21.4132 15.8069 21.4087 15.7006 21.4087C15.4652 21.4087 15.2758 21.432 15.1037 21.4823C14.8031 21.5701 14.5624 21.7401 14.3503 21.8899C14.2348 21.9718 14.042 22.1076 13.9653 22.1197C13.8885 22.1076 13.696 21.9718 13.5805 21.8899C13.3681 21.7401 13.1277 21.5701 12.8271 21.4823C12.655 21.432 12.4653 21.4087 12.2302 21.4087C12.1239 21.4087 12.0216 21.4132 11.9227 21.4174C11.8368 21.4212 11.7555 21.4248 11.6825 21.4248C11.592 21.4248 11.5441 21.4188 11.5209 21.4145C11.4791 21.3516 11.4301 21.1854 11.3998 21.0824C11.3307 20.847 11.2519 20.58 11.0589 20.3488C10.8679 20.1201 10.6043 19.9737 10.3715 19.8448C10.2634 19.7848 10.0865 19.6866 10.0355 19.6311C10.0372 19.5581 10.112 19.3791 10.1576 19.2697C10.2547 19.0376 10.3646 18.7744 10.3646 18.4828C10.3646 18.191 10.2545 17.9278 10.1576 17.6957ZM16.1455 27.7246L14.3123 26.7151C14.1001 26.5985 13.8304 26.5985 13.6182 26.7151L11.785 27.7246V22.5689C11.8544 22.5671 11.9225 22.5648 11.9885 22.5619C12.0749 22.5579 12.1565 22.5543 12.2302 22.5543C12.346 22.5543 12.3954 22.5637 12.4146 22.5693C12.4923 22.5921 12.6417 22.6978 12.7618 22.7826C13.0665 22.9979 13.4456 23.2658 13.9653 23.2658C14.4849 23.2658 14.864 22.9979 15.1687 22.7826C15.2888 22.6978 15.4382 22.5921 15.5157 22.5695C15.5351 22.5639 15.5845 22.5545 15.7003 22.5545C15.774 22.5545 15.8556 22.5581 15.942 22.5619C16.008 22.5648 16.0761 22.5673 16.1452 22.5689V27.7246H16.1455ZM17.4509 24.5221V22.1072C17.6449 21.8758 17.726 21.6018 17.7946 21.3691C17.8305 21.2469 17.8797 21.0797 17.9246 21.0262C17.9692 20.9725 18.1352 20.8805 18.2563 20.8134C18.5776 20.6353 18.9774 20.4135 19.1362 19.9941C19.2933 19.5803 19.1298 19.1893 18.9985 18.8751C18.9389 18.7326 18.8713 18.5708 18.8713 18.4826C18.8713 18.3944 18.9389 18.2328 18.9985 18.0903C19.1298 17.7761 19.2933 17.3849 19.1362 16.9711C18.9774 16.5519 18.5776 16.3301 18.2563 16.152C18.1352 16.0848 17.9692 15.9926 17.9246 15.9394C17.8797 15.8857 17.8305 15.7185 17.7946 15.5963C17.7008 15.2774 17.584 14.8804 17.1842 14.623C16.866 14.4185 16.4976 14.3947 16.248 14.3947C16.1424 14.3947 16.0404 14.3992 15.942 14.4037C15.8556 14.4075 15.774 14.4111 15.7006 14.4111C15.5845 14.4111 15.5351 14.4017 15.516 14.3961C15.4384 14.3735 15.289 14.2678 15.169 14.1828C14.864 13.9677 14.4849 13.6998 13.9653 13.6998C13.4459 13.6998 13.0665 13.9677 12.7618 14.1828C12.6417 14.2676 12.4923 14.3735 12.4148 14.3961C12.3957 14.4017 12.346 14.4111 12.2302 14.4111C12.1568 14.4111 12.0749 14.4075 11.9885 14.4035C11.8901 14.3992 11.7884 14.3947 11.6825 14.3947C11.4332 14.3947 11.0648 14.4185 10.7468 14.623C10.3468 14.8804 10.2297 15.2774 10.1359 15.5963C10.1 15.7185 10.0508 15.8857 10.0061 15.9391C9.96127 15.9926 9.79529 16.0848 9.67418 16.152C9.35292 16.3301 8.95339 16.5519 8.79429 16.9711C8.63723 17.3851 8.80066 17.7761 8.93197 18.0903C8.99163 18.2328 9.0592 18.3944 9.0592 18.4826C9.0592 18.5708 8.99163 18.7326 8.93197 18.8751C8.80066 19.1893 8.63723 19.5803 8.79429 19.9943C8.95339 20.4135 9.35317 20.6353 9.67418 20.8134C9.79554 20.8805 9.96127 20.9727 10.0061 21.0262C10.0508 21.0797 10.1 21.2469 10.1359 21.3691C10.2045 21.6018 10.2858 21.876 10.4799 22.1072V24.5221H1.30543V1.14583H14.7883V5.75736C14.7883 6.0738 15.0805 6.33027 15.441 6.33027H20.6946V24.5221H17.4509Z" fill="#EFECEC"/>
<path fill-rule="evenodd" clip-rule="evenodd" d="M3.84209 6.33028H12.2514C12.6117 6.33028 12.9041 6.07381 12.9041 5.75737C12.9041 5.44092 12.6117 5.18445 12.2514 5.18445H3.84209C3.48157 5.18445 3.18938 5.44092 3.18938 5.75737C3.18938 6.07381 3.48182 6.33028 3.84209 6.33028Z" fill="#EFECEC"/>
<path fill-rule="evenodd" clip-rule="evenodd" d="M18.2309 8.07634H3.84209C3.48157 8.07634 3.18938 8.33281 3.18938 8.64925C3.18938 8.9657 3.48157 9.22217 3.84209 9.22217H18.2309C18.5914 9.22217 18.8836 8.9657 18.8836 8.64925C18.8836 8.33281 18.5914 8.07634 18.2309 8.07634Z" fill="#EFECEC"/>
<path fill-rule="evenodd" clip-rule="evenodd" d="M15.62 10.9682H3.84209C3.48157 10.9682 3.18938 11.2249 3.18938 11.5411C3.18938 11.8576 3.48157 12.1141 3.84209 12.1141H15.62C15.9805 12.1141 16.2727 11.8576 16.2727 11.5411C16.2727 11.2249 15.9805 10.9682 15.62 10.9682Z" fill="#EFECEC"/>
<path fill-rule="evenodd" clip-rule="evenodd" d="M18.2309 10.9682C17.8714 10.9682 17.5782 11.2256 17.5782 11.5411C17.5782 11.8567 17.8714 12.1141 18.2309 12.1141C18.5906 12.1141 18.8836 11.8567 18.8836 11.5411C18.8836 11.2256 18.5906 10.9682 18.2309 10.9682Z" fill="#EFECEC"/>
</svg>
