<svg xmlns="http://www.w3.org/2000/svg" viewBox="0 0 512 512" width="64px" height="64px"><path fill="#49A0AE" d="M7.9,256C7.9,119,119,7.9,256,7.9C393,7.9,504.1,119,504.1,256c0,137-111.1,248.1-248.1,248.1C119,504.1,7.9,393,7.9,256z"/><path fill="#E8E8E8" d="M504.1,256c0-33.3-6.6-65-18.5-94H142.9c-26,0-47,21-47,47v236.4c43.2,36.6,99.1,58.7,160.1,58.7C393,504.1,504.1,393,504.1,256z"/><path fill="#BC2C2A" d="M155 170.8L155 433.1 253.4 363.2 351.8 433.1 351.8 170.8z"/><path fill="#CC3432" d="M416.8,162c0-16.7-13.5-30.3-30.3-30.3H185.3c-16.7,0-30.3,13.6-30.3,30.3v262.3l98.4-69.9l98.4,69.9v-126c0,0,0,0,0-0.1V162H416.8z"/><path fill="#DDA027" d="M253.4 196.5L272 234.3 313.7 240.4 283.6 269.8 290.7 311.3 253.4 291.7 216.1 311.3 223.2 269.8 193.1 240.4 234.8 234.3z"/><path fill="#DDA027" d="M290.7,315.2c-0.6,0-1.3-0.1-1.8-0.5l-35.5-18.6l-35.5,18.6c-1.3,0.7-2.9,0.6-4.1-0.3c-1.2-0.9-1.8-2.4-1.6-3.8l6.8-39.5l-28.7-28c-1.1-1-1.5-2.6-1-4c0.5-1.4,1.7-2.5,3.2-2.7l39.6-5.8l17.7-35.9c1.3-2.7,5.7-2.7,7,0l17.7,35.9l39.6,5.8c1.5,0.2,2.7,1.3,3.2,2.7c0.5,1.4,0.1,3-1,4l-28.7,28l6.8,39.5c0.3,1.5-0.4,3-1.6,3.8C292.3,314.9,291.5,315.2,290.7,315.2z M253.4,287.8c0.6,0,1.2,0.1,1.8,0.5l30.3,15.9l-5.8-33.7c-0.2-1.3,0.2-2.6,1.1-3.5l24.5-23.9l-33.8-4.9c-1.3-0.2-2.4-1-2.9-2.1l-15.1-30.7L238.3,236c-0.6,1.2-1.7,2-2.9,2.1l-33.8,4.9L226,267c0.9,0.9,1.3,2.2,1.1,3.5l-5.8,33.7l30.3-15.9C252.1,287.9,252.8,287.8,253.4,287.8z"/></svg>